<?xml version="1.0" encoding="UTF-8"?>
<svg version="1.1" xmlns="http://www.w3.org/2000/svg" width="500" height="500">
<path d="M0 0 C3.40312738 1.05875074 6.01353231 2.00902154 9 4 C13.62189491 4.49169095 15.46010145 3.85475689 19 1 C22.04547155 -0.01515718 23.54075938 -0.14214591 26.625 0.8125 C29 2 29 2 32 4 C35.59435611 4.59905935 37.4735245 3.82842476 40.4375 1.9375 C43.13128987 0.28608969 43.87118314 -0.00252582 47.1875 0.0625 C50 1 50 1 51.9375 2.625 C54.05549617 4.32752364 54.05549617 4.32752364 57.375 3.875 C61.01595809 3.17009911 61.01595809 3.17009911 64 1.3125 C67 0 67 0 70.75 0.6875 C74 2 74 2 76 4 C79.34442974 4.36352497 81.25731017 4.5176323 84.0625 2.5625 C85.0215625 1.7890625 85.0215625 1.7890625 86 1 C88.75 0.3125 88.75 0.3125 91 0 C93.44212397 3.66318595 93.27243836 5.4879455 93.31884766 9.8581543 C93.33391609 10.89756668 93.33391609 10.89756668 93.34928894 11.95797729 C93.3801616 14.24671607 93.39716711 16.53533765 93.4140625 18.82421875 C93.4327709 20.41177888 93.45234407 21.99932904 93.4727478 23.58686829 C93.52410983 27.76415123 93.56371366 31.94146643 93.60089111 36.11889648 C93.64090531 40.38208013 93.69200942 44.64512914 93.7421875 48.90820312 C93.83899496 57.2720435 93.92338421 65.63595041 94 74 C94.33 74 94.66 74 95 74 C95.33 62.12 95.66 50.24 96 38 C104.07110191 36.65481635 109.42945129 38.88411928 116.375 43 C117.24125 43.66 118.1075 44.32 119 45 C119.825 45.53625 120.65 46.0725 121.5 46.625 C129.86861974 54.57518875 132.96954798 65.56216427 133.35090435 76.86211669 C133.41670536 80.61806412 133.41558253 84.37227334 133.40405273 88.12866211 C133.4097668 89.82360786 133.41673504 91.51854977 133.42485046 93.21348572 C133.44268182 97.78380641 133.44163259 102.35393405 133.43590808 106.92427897 C133.43280187 110.75356041 133.43892447 114.58280553 133.44494683 118.41208178 C133.45895732 127.45207984 133.45745959 136.49198332 133.44604492 145.53198242 C133.43456498 154.82858033 133.44864527 164.1248897 133.4754414 173.4214496 C133.49765826 181.43204006 133.50422239 189.44254034 133.49836498 197.45315939 C133.49500876 202.22491057 133.49732123 206.99647684 133.51461601 211.76820183 C133.53017911 216.25737141 133.52602676 220.74611618 133.50731087 225.23526955 C133.50365086 226.87301431 133.50665698 228.51079122 133.51719666 230.14850616 C133.59239662 242.8099784 132.61849793 255.07887951 123.96875 265.06640625 C110.74677987 278.05226977 93.69838446 276.44994214 76.44140625 276.3984375 C74.04589245 276.40046189 71.65037926 276.40337636 69.25486755 276.40713501 C64.24952287 276.41154199 59.2443395 276.4051803 54.23901367 276.39111328 C47.85303415 276.37403195 41.46743326 276.38386666 35.08146763 276.40183067 C30.13894345 276.4127204 25.19650762 276.40919826 20.25398064 276.4014473 C17.90067435 276.39945913 15.54735981 276.40185539 13.19406319 276.40888596 C-19.45885049 276.48504191 -19.45885049 276.48504191 -30 267 C-39.53968898 257.14176253 -42.115223 247.35288793 -42.13371277 233.80288696 C-42.13597833 233.11313573 -42.13824388 232.4233845 -42.14057809 231.71273172 C-42.1468677 229.41996128 -42.146092 227.12725072 -42.14526367 224.83447266 C-42.14825828 223.18303858 -42.15166151 221.5316052 -42.15544128 219.88017273 C-42.16425406 215.40698136 -42.16661823 210.93380913 -42.16725707 206.46060991 C-42.16796904 203.66292021 -42.17010613 200.86523534 -42.17275429 198.06754684 C-42.18199822 188.29893435 -42.18609031 178.53033548 -42.18530273 168.76171875 C-42.18470198 159.66915502 -42.19525586 150.57665061 -42.2110464 141.48410189 C-42.22413844 133.66562294 -42.22948594 125.84716335 -42.22884732 118.02867353 C-42.22859286 113.36433599 -42.23141586 108.70005122 -42.24202538 104.03572464 C-42.25173456 99.64770316 -42.25176625 95.25978461 -42.24450874 90.87175941 C-42.24346645 89.26620012 -42.24580457 87.66063432 -42.2518692 86.05508614 C-42.30081998 72.19234448 -40.79078032 61.36446047 -32.75 49.75 C-26.43715046 43.43715046 -18.75371082 38.99887885 -10 37 C-8.68 37.33 -7.36 37.66 -6 38 C-6 49.88 -6 61.76 -6 74 C-4.35 74 -2.7 74 -1 74 C-1.00222061 73.08767105 -1.00444122 72.1753421 -1.00672913 71.23536682 C-1.02672928 62.65616723 -1.04197272 54.07697542 -1.05181217 45.49775791 C-1.05704069 41.08662996 -1.06413777 36.6755212 -1.07543945 32.2644043 C-1.08626944 28.01098885 -1.09227707 23.75759191 -1.09487724 19.50416374 C-1.09673129 17.87778367 -1.10035152 16.25140466 -1.10573006 14.62503242 C-1.11294198 12.35489807 -1.11399088 10.08484115 -1.11352539 7.81469727 C-1.115746 6.52008072 -1.11796661 5.22546417 -1.12025452 3.89161682 C-1 1 -1 1 0 0 Z M40.75 14.0625 C36.72859143 15.88923937 34.32571013 16.40837074 30 15 C29.34 14.649375 28.68 14.29875 28 13.9375 C25.14428113 12.59888178 23.13283827 12.69285899 20 13 C17.64018187 13.93578995 15.30368736 14.93347808 13 16 C11.68 16.33 10.36 16.66 9 17 C9 35.81 9 54.62 9 74 C33.09 74 57.18 74 82 74 C82 55.19 82 36.38 82 17 C72.13495085 12.6476869 72.13495085 12.6476869 62.5625 14 C59.16963621 15.32404441 56.6203278 15.31757261 53 15 C49.6875 13.5 49.6875 13.5 47 12 C44.44196603 12 43.03241598 12.91741035 40.75 14.0625 Z M-15 92 C-17.07379154 95.11068731 -17.25796562 95.85221304 -17.30639648 99.39208984 C-17.32238388 100.27665863 -17.33837128 101.16122742 -17.35484314 102.07260132 C-17.36020584 103.02575226 -17.36556854 103.9789032 -17.37109375 104.9609375 C-17.38012222 105.94365631 -17.3891507 106.92637512 -17.39845276 107.93887329 C-17.41296382 110.01846262 -17.42184412 112.0980977 -17.42553711 114.17773438 C-17.43742986 117.35625325 -17.48660454 120.53282866 -17.53710938 123.7109375 C-17.54657401 125.73176136 -17.55380885 127.75259714 -17.55859375 129.7734375 C-17.57812607 130.72253998 -17.59765839 131.67164246 -17.61778259 132.64950562 C-17.61170486 133.54037872 -17.60562714 134.43125183 -17.59936523 135.34912109 C-17.60443588 136.12838959 -17.60950653 136.90765808 -17.61473083 137.71054077 C-16.61336461 141.43995698 -15.14155794 142.75829981 -12 145 C-8.31970904 145.73759173 -4.69840968 145.68307244 -0.95507812 145.64697266 C0.15928116 145.65573425 1.27364044 145.66449585 2.42176819 145.67352295 C6.10449179 145.69552542 9.78601424 145.68095969 13.46875 145.6640625 C16.02795645 145.66743035 18.58716134 145.6722827 21.1463623 145.67855835 C26.50969142 145.68593092 31.87259025 145.67568835 37.23583984 145.65185547 C43.43057163 145.62464504 49.62448056 145.63345981 55.81919241 145.6609875 C61.78598964 145.68643793 67.75253187 145.68371066 73.71937561 145.66907883 C76.25513321 145.66574184 78.79091179 145.6698421 81.3266449 145.68147659 C84.87002297 145.69416621 88.41181806 145.67483137 91.95507812 145.64697266 C93.00458145 145.65709381 94.05408478 145.66721497 95.13539124 145.67764282 C99.84806577 145.60895031 102.24396203 145.54507577 106.14710999 142.73104858 C107.97206117 140.04118016 108.63504172 138.83906214 108.69116211 135.65625 C108.71726059 134.83189453 108.74335907 134.00753906 108.77024841 133.15820312 C108.7737606 131.84239258 108.7737606 131.84239258 108.77734375 130.5 C108.7972084 129.58669922 108.81707306 128.67339844 108.83753967 127.73242188 C108.87464219 125.80617693 108.89997986 123.87967396 108.91430664 121.953125 C108.93742675 119.00932639 108.99781033 116.06810304 109.06445312 113.125 C109.09594216 111.25003553 109.12531033 109.375034 109.15234375 107.5 C109.16885483 106.62279297 109.18536591 105.74558594 109.20237732 104.84179688 C109.22796804 99.6114494 109.01652399 95.45489878 105.5625 91.25 C102.70229251 88.96183401 99.9694727 88.87246171 96.45889282 88.85955811 C95.52802353 88.85384796 94.59715424 88.84813782 93.63807678 88.84225464 C92.61878586 88.84113678 91.59949493 88.84001892 90.54931641 88.83886719 C89.47426346 88.83390228 88.39921051 88.82893738 87.2915802 88.82382202 C83.7282345 88.80919337 80.16493331 88.80239755 76.6015625 88.796875 C74.12918089 88.79112457 71.6567993 88.78536682 69.18441772 88.77960205 C63.99761751 88.76909036 58.81083281 88.76324864 53.62402344 88.75976562 C46.97358361 88.75427754 40.32341414 88.73024346 33.67302895 88.70179367 C28.56527098 88.68318341 23.45756242 88.67796257 18.34977341 88.67642975 C15.8977382 88.67339956 13.44570394 88.66535877 10.99370193 88.65224457 C7.56546654 88.63521656 4.13773302 88.63705653 0.70947266 88.64355469 C-0.81339104 88.62973251 -0.81339104 88.62973251 -2.36701965 88.6156311 C-9.18984089 88.63228379 -9.18984089 88.63228379 -15 92 Z M-10 163 C-10.46331141 164.97596661 -10.46331141 164.97596661 -10.3984375 167.24609375 C-10.40230469 168.08333984 -10.40617187 168.92058594 -10.41015625 169.78320312 C-10.39855469 170.65912109 -10.38695312 171.53503906 -10.375 172.4375 C-10.38660156 173.30955078 -10.39820313 174.18160156 -10.41015625 175.08007812 C-10.40628906 175.91861328 -10.40242188 176.75714844 -10.3984375 177.62109375 C-10.39505371 178.3886499 -10.39166992 179.15620605 -10.38818359 179.94702148 C-9.89105847 182.57615679 -9.16489184 183.4491095 -7 185 C-4.93086618 185.45861039 -4.93086618 185.45861039 -2.65625 185.3984375 C-1.82222656 185.40230469 -0.98820312 185.40617187 -0.12890625 185.41015625 C0.73863281 185.39855469 1.60617188 185.38695312 2.5 185.375 C3.80130859 185.39240234 3.80130859 185.39240234 5.12890625 185.41015625 C5.96292969 185.40628906 6.79695313 185.40242188 7.65625 185.3984375 C8.41744141 185.39505371 9.17863281 185.39166992 9.96289062 185.38818359 C12.58191377 184.88911279 13.45402428 184.15695834 15 182 C15.45867191 179.91433508 15.45867191 179.91433508 15.3984375 177.62109375 C15.40230469 176.78255859 15.40617187 175.94402344 15.41015625 175.08007812 C15.39855469 174.20802734 15.38695312 173.33597656 15.375 172.4375 C15.38660156 171.56158203 15.39820313 170.68566406 15.41015625 169.78320312 C15.40435547 168.52733398 15.40435547 168.52733398 15.3984375 167.24609375 C15.39505371 166.47966553 15.39166992 165.7132373 15.38818359 164.92358398 C15.15325881 162.59236976 15.15325881 162.59236976 12 161 C9.92375936 160.69377611 9.92375936 160.69377611 7.65625 160.734375 C6.82222656 160.73179687 5.98820312 160.72921875 5.12890625 160.7265625 C3.82759766 160.73816406 3.82759766 160.73816406 2.5 160.75 C1.63246094 160.74226562 0.76492187 160.73453125 -0.12890625 160.7265625 C-0.96292969 160.72914063 -1.79695313 160.73171875 -2.65625 160.734375 C-3.41744141 160.73663086 -4.17863281 160.73888672 -4.96289062 160.74121094 C-7.31136746 160.88588689 -7.31136746 160.88588689 -10 163 Z M34 162 C33.97112488 165.64581687 33.95324415 169.29160463 33.9375 172.9375 C33.92912109 173.97841797 33.92074219 175.01933594 33.91210938 176.09179688 C33.90888672 177.08115234 33.90566406 178.07050781 33.90234375 179.08984375 C33.89710693 180.00628662 33.89187012 180.92272949 33.88647461 181.86694336 C33.76078789 183.98363023 33.76078789 183.98363023 35 185 C36.46478506 185.09883336 37.93422958 185.13079289 39.40234375 185.1328125 C40.29244141 185.13410156 41.18253906 185.13539063 42.09960938 185.13671875 C43.03611328 185.13285156 43.97261719 185.12898438 44.9375 185.125 C45.87013672 185.12886719 46.80277344 185.13273437 47.76367188 185.13671875 C49.10075195 185.13478516 49.10075195 185.13478516 50.46484375 185.1328125 C51.69642212 185.13112061 51.69642212 185.13112061 52.95288086 185.12939453 C55.06616024 185.1293784 55.06616024 185.1293784 57 184 C58.43775608 180.29641313 58.13265599 176.35354023 58.125 172.4375 C58.12886719 171.76525391 58.13273437 171.09300781 58.13671875 170.40039062 C58.13061073 167.32500248 57.97991229 164.93973687 57 162 C54.67656444 160.83828222 53.30366684 160.87096031 50.71875 160.8671875 C49.87699219 160.86589844 49.03523438 160.86460937 48.16796875 160.86328125 C47.28753906 160.86714844 46.40710938 160.87101563 45.5 160.875 C44.17935547 160.86919922 44.17935547 160.86919922 42.83203125 160.86328125 C41.56939453 160.86521484 41.56939453 160.86521484 40.28125 160.8671875 C39.50845703 160.86831543 38.73566406 160.86944336 37.93945312 160.87060547 C35.91790801 160.87992914 35.91790801 160.87992914 34 162 Z M77 162 C76.97112488 165.64581687 76.95324415 169.29160463 76.9375 172.9375 C76.92912109 173.97841797 76.92074219 175.01933594 76.91210938 176.09179688 C76.90888672 177.08115234 76.90566406 178.07050781 76.90234375 179.08984375 C76.89710693 180.00628662 76.89187012 180.92272949 76.88647461 181.86694336 C76.76078789 183.98363023 76.76078789 183.98363023 78 185 C81.47133297 185.27834768 84.95632504 185.23176202 88.4375 185.25 C89.41783203 185.270625 90.39816406 185.29125 91.40820312 185.3125 C92.81295898 185.32023437 92.81295898 185.32023437 94.24609375 185.328125 C95.10904053 185.3374707 95.9719873 185.34681641 96.86108398 185.35644531 C97.91984741 185.18000488 97.91984741 185.18000488 99 185 C101.07477826 181.88783261 101.25522588 181.15939492 101.265625 177.62109375 C101.26820313 176.78255859 101.27078125 175.94402344 101.2734375 175.08007812 C101.26570313 174.20802734 101.25796875 173.33597656 101.25 172.4375 C101.25773437 171.56158203 101.26546875 170.68566406 101.2734375 169.78320312 C101.26957031 168.52733398 101.26957031 168.52733398 101.265625 167.24609375 C101.26336914 166.47966553 101.26111328 165.7132373 101.25878906 164.92358398 C101.16588484 162.76154346 101.16588484 162.76154346 99 161 C96.9011473 160.70650117 96.9011473 160.70650117 94.5 160.76953125 C93.613125 160.77146484 92.72625 160.77339844 91.8125 160.77539062 C90.4203125 160.79375977 90.4203125 160.79375977 89 160.8125 C88.071875 160.81314453 87.14375 160.81378906 86.1875 160.81445312 C81.43617451 160.670091 81.43617451 160.670091 77 162 Z M-8 198 C-10.0331579 201.04973685 -10.2548508 201.68956868 -10.265625 205.125 C-10.26820313 205.91390625 -10.27078125 206.7028125 -10.2734375 207.515625 C-10.26570313 208.33546875 -10.25796875 209.1553125 -10.25 210 C-10.25773437 210.81984375 -10.26546875 211.6396875 -10.2734375 212.484375 C-10.27085937 213.27328125 -10.26828125 214.0621875 -10.265625 214.875 C-10.26336914 215.59429687 -10.26111328 216.31359375 -10.25878906 217.0546875 C-10.1021844 219.32353438 -10.1021844 219.32353438 -8 222 C-5.81109214 222.46457416 -5.81109214 222.46457416 -3.28125 222.3984375 C-2.34925781 222.40230469 -1.41726562 222.40617187 -0.45703125 222.41015625 C0.51878906 222.39855469 1.49460937 222.38695312 2.5 222.375 C3.96373047 222.39240234 3.96373047 222.39240234 5.45703125 222.41015625 C6.38902344 222.40628906 7.32101563 222.40242188 8.28125 222.3984375 C9.13783203 222.39505371 9.99441406 222.39166992 10.87695312 222.38818359 C11.57755859 222.26008301 12.27816406 222.13198242 13 222 C15.71382083 217.92926875 15.33127641 214.77671888 15.3125 210 C15.32861328 209.18015625 15.34472656 208.3603125 15.36132812 207.515625 C15.36197266 206.72671875 15.36261719 205.9378125 15.36328125 205.125 C15.36626221 204.40570313 15.36924316 203.68640625 15.37231445 202.9453125 C14.88056627 200.37596856 14.11520171 199.51880145 12 198 C9.81621034 197.54052597 9.81621034 197.54052597 7.40234375 197.6015625 C6.51869141 197.59769531 5.63503906 197.59382812 4.72460938 197.58984375 C3.34499023 197.60724609 3.34499023 197.60724609 1.9375 197.625 C0.55208008 197.60759766 0.55208008 197.60759766 -0.86132812 197.58984375 C-1.74369141 197.59371094 -2.62605469 197.59757813 -3.53515625 197.6015625 C-4.343479 197.60494629 -5.15180176 197.60833008 -5.98461914 197.61181641 C-6.64969482 197.73991699 -7.31477051 197.86801758 -8 198 Z M34 200 C33.97112186 203.47914941 33.95324313 206.95826831 33.9375 210.4375 C33.92912109 211.43072266 33.92074219 212.42394531 33.91210938 213.44726562 C33.90888672 214.39150391 33.90566406 215.33574219 33.90234375 216.30859375 C33.89710693 217.18314209 33.89187012 218.05769043 33.88647461 218.95874023 C33.77215191 220.99440206 33.77215191 220.99440206 35 222 C36.56172745 222.08685603 38.12729344 222.10702219 39.69140625 222.09765625 C40.63564453 222.09443359 41.57988281 222.09121094 42.55273438 222.08789062 C44.04256836 222.07532227 44.04256836 222.07532227 45.5625 222.0625 C46.55958984 222.05798828 47.55667969 222.05347656 48.58398438 222.04882812 C51.05604849 222.03700007 53.52799518 222.02051849 56 222 C57.52629541 217.24616292 58.25261702 213.29360953 58.1875 208.25 C58.18105469 207.14140625 58.17460937 206.0328125 58.16796875 204.890625 C58.12203222 201.93166019 58.12203222 201.93166019 57 199 C53.74730549 197.37365274 50.195215 197.81546529 46.625 197.8125 C45.85671875 197.80025391 45.0884375 197.78800781 44.296875 197.77539062 C43.55179688 197.77345703 42.80671875 197.77152344 42.0390625 197.76953125 C41.36053223 197.76542236 40.68200195 197.76131348 39.98291016 197.75708008 C37.65511057 198.04225129 36.03038071 198.85489705 34 200 Z M77 200 C76.69015469 202.09813381 76.69015469 202.09813381 76.734375 204.5 C76.73179687 205.386875 76.72921875 206.27375 76.7265625 207.1875 C76.73429687 208.115625 76.74203125 209.04375 76.75 210 C76.74226563 210.928125 76.73453125 211.85625 76.7265625 212.8125 C76.72914063 213.699375 76.73171875 214.58625 76.734375 215.5 C76.73663086 216.3146875 76.73888672 217.129375 76.74121094 217.96875 C76.81825707 220.22630451 76.81825707 220.22630451 79 222 C81.09813381 222.30984531 81.09813381 222.30984531 83.5 222.265625 C84.8303125 222.26949219 84.8303125 222.26949219 86.1875 222.2734375 C87.5796875 222.26183594 87.5796875 222.26183594 89 222.25 C89.928125 222.25773437 90.85625 222.26546875 91.8125 222.2734375 C92.699375 222.27085937 93.58625 222.26828125 94.5 222.265625 C95.72203125 222.26224121 95.72203125 222.26224121 96.96875 222.25878906 C99.22630451 222.18174293 99.22630451 222.18174293 101 220 C101.30984531 217.90186619 101.30984531 217.90186619 101.265625 215.5 C101.26820313 214.613125 101.27078125 213.72625 101.2734375 212.8125 C101.26570313 211.884375 101.25796875 210.95625 101.25 210 C101.25773437 209.071875 101.26546875 208.14375 101.2734375 207.1875 C101.26957031 205.8571875 101.26957031 205.8571875 101.265625 204.5 C101.26336914 203.6853125 101.26111328 202.870625 101.25878906 202.03125 C101.18174293 199.77369549 101.18174293 199.77369549 99 198 C96.90186619 197.69015469 96.90186619 197.69015469 94.5 197.734375 C93.1696875 197.73050781 93.1696875 197.73050781 91.8125 197.7265625 C90.884375 197.73429688 89.95625 197.74203125 89 197.75 C87.6078125 197.73839844 87.6078125 197.73839844 86.1875 197.7265625 C85.300625 197.72914063 84.41375 197.73171875 83.5 197.734375 C82.6853125 197.73663086 81.870625 197.73888672 81.03125 197.74121094 C78.77369549 197.81825707 78.77369549 197.81825707 77 200 Z M-10 237 C-10.44626783 240.12546156 -10.32410302 243.2837984 -10.3125 246.4375 C-10.32861328 247.30955078 -10.34472656 248.18160156 -10.36132812 249.08007812 C-10.36197266 249.91861328 -10.36261719 250.75714844 -10.36328125 251.62109375 C-10.36626221 252.3886499 -10.36924316 253.15620605 -10.37231445 253.94702148 C-9.89519403 256.57791043 -9.15930565 257.44835037 -7 259 C-5.02691387 259.42620815 -5.02691387 259.42620815 -2.875 259.328125 C-2.08609375 259.32296875 -1.2971875 259.3178125 -0.484375 259.3125 C0.33546875 259.291875 1.1553125 259.27125 2 259.25 C3.22976562 259.24226563 3.22976562 259.24226563 4.484375 259.234375 C7.96984735 259.18881327 10.66351346 259.11216218 14 258 C15.70345745 254.59308509 15.22662366 250.81732483 15.25 247.0625 C15.270625 246.23814453 15.29125 245.41378906 15.3125 244.56445312 C15.31765625 243.77103516 15.3228125 242.97761719 15.328125 242.16015625 C15.3374707 241.43449463 15.34681641 240.70883301 15.35644531 239.96118164 C14.8859073 237.37225571 14.13051084 236.52259252 12 235 C9.81523819 234.55642816 9.81523819 234.55642816 7.40234375 234.63671875 C6.07686523 234.63768555 6.07686523 234.63768555 4.72460938 234.63867188 C3.34499023 234.6628418 3.34499023 234.6628418 1.9375 234.6875 C1.01388672 234.68427734 0.09027344 234.68105469 -0.86132812 234.67773438 C-5.95927944 234.4166911 -5.95927944 234.4166911 -10 237 Z M34 236 C33.72165232 239.47133297 33.76823798 242.95632504 33.75 246.4375 C33.729375 247.41783203 33.70875 248.39816406 33.6875 249.40820312 C33.68234375 250.34470703 33.6771875 251.28121094 33.671875 252.24609375 C33.6625293 253.10904053 33.65318359 253.9719873 33.64355469 254.86108398 C33.81999512 255.91984741 33.81999512 255.91984741 34 257 C37.07144133 259.04762755 37.69850959 259.2500695 41.16015625 259.23046875 C42.3502832 259.22756836 42.3502832 259.22756836 43.56445312 259.22460938 C44.80098633 259.20624023 44.80098633 259.20624023 46.0625 259.1875 C47.30483398 259.1865332 47.30483398 259.1865332 48.57226562 259.18554688 C52.93499987 259.28394082 52.93499987 259.28394082 57 258 C58.33143507 254.46364061 58.16756134 250.79900526 58.1875 247.0625 C58.20167969 245.85722656 58.21585938 244.65195312 58.23046875 243.41015625 C58.00944874 240.13980938 57.40750326 237.93183485 56 235 C52.52085059 234.97112186 49.04173169 234.95324313 45.5625 234.9375 C44.56927734 234.92912109 43.57605469 234.92074219 42.55273438 234.91210938 C41.60849609 234.90888672 40.66425781 234.90566406 39.69140625 234.90234375 C38.81685791 234.89710693 37.94230957 234.89187012 37.04125977 234.88647461 C35.00559794 234.77215191 35.00559794 234.77215191 34 236 Z M77 236 C77 243.26 77 250.52 77 258 C81.03896157 259.34632052 84.7712147 259.18417548 89 259.1875 C90.22976563 259.20586914 90.22976563 259.20586914 91.484375 259.22460938 C92.27328125 259.22654297 93.0621875 259.22847656 93.875 259.23046875 C94.95394531 259.23663208 94.95394531 259.23663208 96.0546875 259.24291992 C98.32443251 259.10677908 98.32443251 259.10677908 101 257 C101.44775603 254.90821058 101.44775603 254.90821058 101.36328125 252.5 C101.36263672 251.613125 101.36199219 250.72625 101.36132812 249.8125 C101.34521484 248.884375 101.32910156 247.95625 101.3125 247 C101.31572266 246.071875 101.31894531 245.14375 101.32226562 244.1875 C101.58699837 239.06387344 101.58699837 239.06387344 99 235 C96.9011473 234.70650117 96.9011473 234.70650117 94.5 234.76953125 C93.613125 234.77146484 92.72625 234.77339844 91.8125 234.77539062 C90.4203125 234.79375977 90.4203125 234.79375977 89 234.8125 C88.071875 234.81314453 87.14375 234.81378906 86.1875 234.81445312 C81.43617451 234.670091 81.43617451 234.670091 77 236 Z " fill="#151515" transform="translate(204,108)"/>
<path d="M0 0 C3.57289846 3.13919402 7.03128561 6.39051204 10.46582031 9.6796875 C10.9646875 10.15132324 11.46355469 10.62295898 11.97753906 11.10888672 C23.15038916 21.71088747 32.61474528 33.40552226 40.46582031 46.6796875 C41.1503125 47.79988281 41.83480469 48.92007813 42.54003906 50.07421875 C68.27274538 93.16088043 75.15483388 144.85257785 64.46582031 193.6796875 C62.74025095 200.37545018 60.60357706 206.91334583 58.27246094 213.42041016 C57.59312419 215.32312876 56.95438327 217.24027109 56.32519531 219.16015625 C51.00651272 234.50098327 42.04382919 249.60024018 32.46582031 262.6796875 C31.7065625 263.73414063 30.94730469 264.78859375 30.16503906 265.875 C18.86928159 281.12427258 4.91391644 294.67658306 -10.53417969 305.6796875 C-11.12763184 306.10685059 -11.72108398 306.53401367 -12.33251953 306.97412109 C-21.5959726 313.58032866 -31.24647911 318.85328947 -41.53417969 323.6796875 C-42.99984375 324.38738281 -42.99984375 324.38738281 -44.49511719 325.109375 C-57.62927125 331.31054452 -71.40727396 335.45516068 -85.53417969 338.6796875 C-86.25653809 338.84774902 -86.97889648 339.01581055 -87.72314453 339.18896484 C-121.35114476 346.60973324 -157.49122071 342.01692087 -189.53417969 330.6796875 C-190.72011719 330.28007812 -191.90605469 329.88046875 -193.12792969 329.46875 C-206.99215738 324.53224468 -220.42825746 317.00010706 -232.53417969 308.6796875 C-233.40816406 308.09058594 -234.28214844 307.50148438 -235.18261719 306.89453125 C-241.84025293 302.24944728 -247.71539079 296.98824761 -253.58886719 291.4140625 C-255.42044019 289.6821285 -257.24407207 288.11321814 -259.22167969 286.53515625 C-262.81173055 283.65462557 -265.56448172 280.17968867 -268.53417969 276.6796875 C-269.38496094 275.71675781 -270.23574219 274.75382812 -271.11230469 273.76171875 C-277.75598853 266.19109122 -283.4107884 258.34737234 -288.53417969 249.6796875 C-289.15921387 248.62491211 -289.15921387 248.62491211 -289.796875 247.54882812 C-295.66641679 237.54562098 -300.54870775 227.5733108 -304.53417969 216.6796875 C-305.06591797 215.33970703 -305.06591797 215.33970703 -305.60839844 213.97265625 C-314.55616821 190.94894826 -318.03116591 165.30442417 -316.53417969 140.6796875 C-316.4698877 139.60025879 -316.4055957 138.52083008 -316.33935547 137.40869141 C-312.74624227 82.99764185 -288.43821628 36.04520433 -248.09667969 -0.25390625 C-237.88489762 -9.19200262 -226.47044741 -15.96057677 -214.53417969 -22.3203125 C-213.40496094 -22.93777344 -212.27574219 -23.55523437 -211.11230469 -24.19140625 C-201.30630734 -29.35912081 -191.07338535 -32.95353595 -180.53417969 -36.3203125 C-179.77057129 -36.56555664 -179.00696289 -36.81080078 -178.22021484 -37.06347656 C-118.24355763 -55.95645204 -47.61332891 -40.97595206 0 0 Z M-214.53417969 -6.3203125 C-215.45714844 -5.79179688 -216.38011719 -5.26328125 -217.33105469 -4.71875 C-228.94119613 2.25420477 -239.58969811 11.51655805 -249.53417969 20.6796875 C-250.34628906 21.41251953 -250.34628906 21.41251953 -251.17480469 22.16015625 C-262.51140523 32.88754695 -271.27987775 46.54018645 -279.53417969 59.6796875 C-279.91703125 60.28296875 -280.29988281 60.88625 -280.69433594 61.5078125 C-292.70612199 80.83304763 -298.76810648 105.13932735 -301.22167969 127.5546875 C-301.40947998 129.26881836 -301.40947998 129.26881836 -301.60107422 131.01757812 C-306.35212454 176.49838095 -293.21473469 223.87335475 -264.53417969 259.6796875 C-261.79613671 262.91323617 -258.94013182 266.0092306 -256.00683594 269.06640625 C-254.16962429 271.00810387 -252.50646784 272.93194868 -250.84277344 275.01171875 C-250.0809375 275.89214844 -249.31910156 276.77257812 -248.53417969 277.6796875 C-247.87417969 277.6796875 -247.21417969 277.6796875 -246.53417969 277.6796875 C-246.53417969 278.3396875 -246.53417969 278.9996875 -246.53417969 279.6796875 C-221.39591248 303.45912946 -190.18616957 317.91754236 -156.53417969 324.6796875 C-155.31891602 324.9274292 -155.31891602 324.9274292 -154.07910156 325.18017578 C-123.99817216 331.08762069 -92.39316022 327.75793458 -63.53417969 317.6796875 C-61.91382813 317.14794922 -61.91382813 317.14794922 -60.26074219 316.60546875 C-51.14812422 313.39917724 -42.90299154 308.66852993 -34.56738281 303.8503418 C-33.26425628 303.1000426 -31.9560403 302.35847409 -30.64160156 301.62817383 C-24.49895345 298.20692023 -19.07831476 293.98093083 -13.53417969 289.6796875 C-12.63441406 288.98875 -11.73464844 288.2978125 -10.80761719 287.5859375 C25.6974573 258.72646858 48.52816465 215.16691794 54.13623047 169.20263672 C56.03446088 148.91266281 55.01668901 128.54844314 50.46582031 108.6796875 C50.23024414 107.65004883 49.99466797 106.62041016 49.75195312 105.55957031 C46.72286207 92.17563359 46.72286207 92.17563359 41.43261719 79.59179688 C40.45267066 77.65368041 39.71557206 75.72771602 38.99707031 73.6796875 C37.4412902 69.38874559 35.31139809 65.58467519 32.96582031 61.6796875 C32.31214478 60.58491089 32.31214478 60.58491089 31.64526367 59.46801758 C23.99371938 46.8044733 15.81515688 35.26625814 5.46582031 24.6796875 C4.20898438 23.33003906 4.20898438 23.33003906 2.92675781 21.953125 C-7.64348873 10.87192998 -20.26545778 1.31009192 -33.53417969 -6.3203125 C-34.44538574 -6.8455249 -34.44538574 -6.8455249 -35.375 -7.38134766 C-45.73179341 -13.284066 -56.14728716 -17.8144832 -67.53417969 -21.3203125 C-68.2625 -21.54702637 -68.99082031 -21.77374023 -69.74121094 -22.00732422 C-117.5235542 -36.66211032 -171.17956522 -31.97702879 -214.53417969 -6.3203125 Z " fill="#242424" transform="translate(374.5341796875,101.3203125)"/>
<path d="M0 0 C0.98782471 -0.00953201 1.97564941 -0.01906403 2.9934082 -0.02888489 C4.05390381 -0.02797348 5.11439941 -0.02706207 6.20703125 -0.02612305 C7.30168701 -0.03040817 8.39634277 -0.0346933 9.52416992 -0.03910828 C11.83739531 -0.04484847 14.15063875 -0.04535413 16.46386719 -0.04101562 C20.0061716 -0.03785372 23.54764248 -0.0613263 27.08984375 -0.08666992 C29.33723853 -0.08894271 31.58463556 -0.08964651 33.83203125 -0.08862305 C35.42277466 -0.10243767 35.42277466 -0.10243767 37.0456543 -0.11653137 C38.033479 -0.11030258 39.02130371 -0.10407379 40.0390625 -0.09765625 C40.90635986 -0.09828568 41.77365723 -0.0989151 42.66723633 -0.0995636 C45.49270737 0.34993483 46.88980862 1.41228628 49.01953125 3.2746582 C48.64453125 6.2121582 48.64453125 6.2121582 48.01953125 9.2746582 C45.53179571 10.51852598 43.8497396 10.40826775 41.06665039 10.41992188 C40.03540543 10.42630173 39.00416046 10.43268158 37.94166565 10.43925476 C36.82396286 10.44036758 35.70626007 10.44148041 34.5546875 10.44262695 C33.41043808 10.44595535 32.26618866 10.44928375 31.08726501 10.45271301 C28.66373091 10.45778289 26.2401898 10.46012132 23.81665039 10.45996094 C20.10095771 10.46214707 16.38556197 10.48030143 12.66992188 10.49926758 C10.31901144 10.5022015 7.96809958 10.5041863 5.6171875 10.50512695 C4.50150894 10.51231247 3.38583038 10.51949799 2.23634338 10.52690125 C1.20194626 10.52382462 0.16754913 10.52074799 -0.89819336 10.51757812 C-1.80927353 10.51900314 -2.7203537 10.52042816 -3.65904236 10.52189636 C-5.98046875 10.2746582 -5.98046875 10.2746582 -8.98046875 8.2746582 C-9.16796875 5.1496582 -9.16796875 5.1496582 -8.98046875 2.2746582 C-5.86541769 0.46170141 -3.58816181 0.01906159 0 0 Z " fill="#353535" transform="translate(228.98046875,155.725341796875)"/>
<path d="M0 0 C0.85428589 -0.00630432 1.70857178 -0.01260864 2.58874512 -0.019104 C3.51272095 -0.01505554 4.43669678 -0.01100708 5.38867188 -0.00683594 C6.80895691 -0.00970612 6.80895691 -0.00970612 8.25793457 -0.01263428 C10.26196559 -0.01399667 12.26600542 -0.0102965 14.27001953 -0.00195312 C17.34492741 0.00874559 20.41925101 -0.00184666 23.49414062 -0.01464844 C25.43815234 -0.01332685 27.38216368 -0.01076448 29.32617188 -0.00683594 C30.71213562 -0.01290863 30.71213562 -0.01290863 32.12609863 -0.019104 C33.40752747 -0.00964752 33.40752747 -0.00964752 34.71484375 0 C35.4682605 0.00159119 36.22167725 0.00318237 36.9979248 0.00482178 C38.85742188 0.25878906 38.85742188 0.25878906 40.85742188 2.25878906 C40.60742188 5.82128906 40.60742188 5.82128906 39.85742188 9.25878906 C36.44688891 10.96405554 32.55139266 10.42199669 28.79882812 10.42675781 C27.44868874 10.43175041 27.44868874 10.43175041 26.0712738 10.43684387 C24.16560376 10.44191151 22.25992482 10.44425225 20.35424805 10.4440918 C17.43523571 10.4462776 14.51660163 10.46443305 11.59765625 10.48339844 C9.74804817 10.4863325 7.89843829 10.48831721 6.04882812 10.48925781 C5.17376114 10.49644333 4.29869415 10.50362885 3.39710999 10.5110321 C2.58294113 10.50795547 1.76877228 10.50487885 0.92993164 10.50170898 C0.21426529 10.503134 -0.50140106 10.50455902 -1.23875427 10.50602722 C-3.14257812 10.25878906 -3.14257812 10.25878906 -6.14257812 8.25878906 C-6.45507812 5.25878906 -6.45507812 5.25878906 -6.14257812 2.25878906 C-3.75410985 -0.12967921 -3.25037237 0.00686466 0 0 Z " fill="#343434" transform="translate(226.142578125,136.7412109375)"/>
<path d="M0 0 C3 1 3 1 4 3 C4.12103681 5.24599216 4.1775068 7.49554976 4.20532227 9.74462891 C4.21522186 10.43742447 4.22512146 11.13022003 4.23532104 11.8440094 C4.26695497 14.13815878 4.29170086 16.43232889 4.31640625 18.7265625 C4.33697415 20.31554712 4.35797058 21.90452624 4.37937927 23.49349976 C4.43461691 27.67903195 4.48401869 31.86461366 4.53222656 36.05023193 C4.58242926 40.3199912 4.63812174 44.58967842 4.69335938 48.859375 C4.80096163 57.23952245 4.90240199 65.6197301 5 74 C5.33 74 5.66 74 6 74 C6.33 62.12 6.66 50.24 7 38 C12.70209805 37.04965033 13.9246791 36.94529769 18.875 38.9375 C20.32519531 39.50791016 20.32519531 39.50791016 21.8046875 40.08984375 C22.52914063 40.39019531 23.25359375 40.69054687 24 41 C24 41.33 24 41.66 24 42 C21.125 42.125 21.125 42.125 18 42 C17.34 41.34 16.68 40.68 16 40 C12.535 39.505 12.535 39.505 9 39 C9 50.88 9 62.76 9 75 C6.525 75.495 6.525 75.495 4 76 C2 74 2 74 1.75949097 71.02609253 C1.76393219 69.75146149 1.76837341 68.47683044 1.77294922 67.16357422 C1.77265717 66.46102509 1.77236511 65.75847595 1.77206421 65.03463745 C1.77345977 62.70786269 1.78903128 60.38140646 1.8046875 58.0546875 C1.80841683 56.44328995 1.81126418 54.83189013 1.81326294 53.2204895 C1.82090569 48.97566486 1.84055961 44.7309767 1.8626709 40.48620605 C1.88311557 36.1561874 1.8922617 31.82614674 1.90234375 27.49609375 C1.92380496 18.99733314 1.95794855 10.49868354 2 2 C0.35 2 -1.3 2 -3 2 C-2.01 1.34 -1.02 0.68 0 0 Z " fill="#B0B0B0" transform="translate(293,108)"/>
<path d="M0 0 C0 0.66 0 1.32 0 2 C-1.55628444 3.3489745 -3.17136127 4.63064589 -4.8125 5.875 C-8.09097989 8.36342774 -10.66568357 10.60593255 -13 14 C-14.5625 15.75 -14.5625 15.75 -16 17 C-16.66 17 -17.32 17 -18 17 C-15.78461586 10.15244903 -8.02119301 0 0 0 Z " fill="#686868" transform="translate(185,149)"/>
<path d="M0 0 C13.6332574 0.96355353 13.6332574 0.96355353 20 2 C20 2.33 20 2.66 20 3 C17.41603321 3.08112454 14.83462432 3.14054748 12.25 3.1875 C11.52039063 3.21263672 10.79078125 3.23777344 10.0390625 3.26367188 C6.65513396 3.30981636 4.42141443 3.25324128 1.484375 1.48828125 C0.99453125 0.99714844 0.5046875 0.50601562 0 0 Z " fill="#A3A3A3" transform="translate(218,426)"/>
<path d="M0 0 C5.66104589 0.49658297 9.87674471 1.54510684 15 4 C15 4.33 15 4.66 15 5 C12.125 5.125 12.125 5.125 9 5 C8.34 4.34 7.68 3.68 7 3 C4.67724823 2.59952556 2.34260643 2.2602896 0 2 C0 1.34 0 0.68 0 0 Z " fill="#9A9A9A" transform="translate(302,145)"/>
<path d="M0 0 C0.33 0.66 0.66 1.32 1 2 C-3.62 2 -8.24 2 -13 2 C-8.292589 -2.707411 -6.03617328 -2.12383875 0 0 Z " fill="#8F8F8F" transform="translate(278,110)"/>
<path d="M0 0 C0.66 0.33 1.32 0.66 2 1 C-1.63 4.3 -5.26 7.6 -9 11 C-9 8 -9 8 -7.03125 5.95703125 C-6.1959375 5.24933594 -5.360625 4.54164062 -4.5 3.8125 C-3.6646875 3.09707031 -2.829375 2.38164063 -1.96875 1.64453125 C-1.3190625 1.10183594 -0.669375 0.55914062 0 0 Z " fill="#656565" transform="translate(111,118)"/>
<path d="M0 0 C-0.33 0.99 -0.66 1.98 -1 3 C-5.455 3.495 -5.455 3.495 -10 4 C-4 0 -4 0 0 0 Z " fill="#999999" transform="translate(323,414)"/>
<path d="M0 0 C0.66 0.33 1.32 0.66 2 1 C-2.296875 5.00390625 -2.296875 5.00390625 -4 6 C-6.203125 5.65234375 -6.203125 5.65234375 -8 5 C-6.71475739 4.13619741 -5.42157581 3.28419631 -4.125 2.4375 C-3.04605469 1.72400391 -3.04605469 1.72400391 -1.9453125 0.99609375 C-1.30335938 0.66738281 -0.66140625 0.33867187 0 0 Z " fill="#939393" transform="translate(347,400)"/>
<path d="M0 0 C1 2 1 2 0.875 3.9375 C-0.3582873 6.84453436 -2.25745971 7.59356908 -5 9 C-3.7508258 5.54074837 -2.32472205 2.85306797 0 0 Z " fill="#ABABAB" transform="translate(401,346)"/>
<path d="M0 0 C4.55737263 0.43820891 7.57653445 0.85041169 11 4 C6.55129785 4.39253254 3.85756507 3.15305957 0 1 C0 0.67 0 0.34 0 0 Z " fill="#A0A0A0" transform="translate(307,66)"/>
</svg>
